<svg width="21" height="21" viewBox="0 0 21 21" fill="none" xmlns="http://www.w3.org/2000/svg">
<g clip-path="url(#clip0)">
<path d="M20.5 10.5608C20.5 5.03829 16.0225 0.560791 10.5 0.560791C4.9775 0.560791 0.5 5.03829 0.5 10.5608C0.5 15.5525 4.15667 19.6891 8.9375 20.4391V13.4516H6.39833V10.56H8.9375V8.35829C8.9375 5.85246 10.4308 4.46746 12.715 4.46746C13.8083 4.46746 14.9533 4.66329 14.9533 4.66329V7.12412H13.6917C12.4492 7.12412 12.0617 7.89496 12.0617 8.68579V10.5608H14.835L14.3917 13.4525H12.0617V20.44C16.8433 19.6891 20.5 15.5516 20.5 10.5608Z" fill="#101035"/>
</g>
<defs>
<clipPath id="clip0">
<rect width="20" height="20" fill="white" transform="translate(0.5 0.5)"/>
</clipPath>
</defs>
</svg>
