<svg width="21" height="21" viewBox="0 0 21 21" fill="none" xmlns="http://www.w3.org/2000/svg">
<g clip-path="url(#clip0)">
<path d="M20.4608 4.30832C19.7121 4.638 18.9188 4.85561 18.1067 4.95416C18.9618 4.4402 19.602 3.6342 19.9092 2.68499C19.1167 3.14749 18.2383 3.48416 17.3033 3.67166C16.6865 3.01202 15.8691 2.57451 14.978 2.42708C14.087 2.27964 13.1722 2.43053 12.3758 2.85632C11.5793 3.2821 10.9457 3.95895 10.5734 4.78176C10.201 5.60457 10.1108 6.5273 10.3167 7.40666C6.90833 7.24582 3.88917 5.60832 1.86667 3.13499C1.49899 3.75984 1.30722 4.47251 1.31167 5.19749C1.31167 6.62249 2.03667 7.87499 3.135 8.61082C2.48405 8.5901 1.84748 8.4141 1.27833 8.09749V8.14749C1.27796 9.09448 1.60522 10.0124 2.20459 10.7456C2.80395 11.4788 3.63851 11.9821 4.56667 12.17C3.96525 12.3311 3.33534 12.3553 2.72333 12.2408C2.98677 13.0558 3.49805 13.7683 4.18585 14.2787C4.87364 14.7892 5.70363 15.0722 6.56 15.0883C5.10961 16.2266 3.31873 16.8444 1.475 16.8425C1.15 16.8425 0.825833 16.8233 0.5 16.7867C2.37976 17.9903 4.56543 18.6292 6.7975 18.6275C14.3417 18.6275 18.4625 12.3808 18.4625 6.97332C18.4625 6.79832 18.4625 6.62332 18.45 6.44832C19.255 5.86904 19.9494 5.14984 20.5 4.32499L20.4608 4.30832Z" fill="#101035"/>
</g>
<defs>
<clipPath id="clip0">
<rect width="20" height="20" fill="white" transform="translate(0.5 0.5)"/>
</clipPath>
</defs>
</svg>
